<?xml version="1.0" encoding="UTF-8"?>
<svg width="23px" height="24px" viewBox="0 0 23 24" version="1.1" xmlns="http://www.w3.org/2000/svg" xmlns:xlink="http://www.w3.org/1999/xlink">
    <!-- Generator: Sketch 52.5 (67469) - http://www.bohemiancoding.com/sketch -->
    <title>Shape</title>
    <desc>Created with Sketch.</desc>
    <g id="Page-1" stroke="none" stroke-width="1" fill="none" fill-rule="evenodd">
        <g id="mini-logo" fill="#FFFFFF" fill-rule="nonzero">
            <path d="M11.5001,21.2276 C11.5001,22.7587 10.1824,24.0588 8.84428,23.3145 C6.98613,22.2811 4.51395,20.9063 2.6558,19.8728 C1.01239,18.9589 0,17.2697 0,15.4417 L0,8.55833 C0,6.73025 1.01239,5.04109 2.6558,4.12713 C4.51395,3.09374 6.98613,1.71891 8.84428,0.685467 C10.4877,-0.228489 12.5124,-0.228489 14.1559,0.685467 C16.014,1.71891 18.4861,3.09374 20.3442,4.12713 C21.6069,4.82942 21.1973,6.52293 19.9393,7.23349 L14.1251,10.5173 C12.526,11.4291 11.5076,13.1529 11.5001,14.9313 L11.5001,21.2276 Z M22.1496,14.8569 C22.5058,14.6502 23,14.8877 23,15.2995 L23,15.4417 C23,17.2697 21.9877,18.9589 20.3442,19.8728 C18.4861,20.9063 16.014,22.2811 14.1559,23.3145 C13.9106,23.4509 13.6248,23.2626 13.6248,22.982 L13.6248,21.435 C13.6294,20.3707 14.2327,19.3441 15.1768,18.7956 C17.4956,17.4737 19.8311,16.1793 22.1496,14.8569 Z M22.3832,8.22578 C22.6576,8.07078 23,8.24313 23,8.55833 L23,9.80596 C22.9943,11.1459 22.2337,12.4181 21.0598,13.1002 C18.7411,14.4222 16.4056,15.7167 14.0871,17.0387 C13.8887,17.1538 13.6248,17.0179 13.6248,16.7886 L13.6248,14.9353 C13.6293,13.8556 14.2471,12.8262 15.2036,12.2808 L22.3832,8.22578 Z" id="Shape"></path>
        </g>
    </g>
</svg>